<svg xmlns="http://www.w3.org/2000/svg" xmlns:xlink="http://www.w3.org/1999/xlink" contentStyleType="text/css" data-diagram-type="DESCRIPTION" height="1003px" preserveAspectRatio="none" style="width:990px;height:1003px;background:#FFFFFF;" version="1.1" viewBox="0 0 990 1003" width="990px" zoomAndPan="magnify"><title>&lt;size:24&gt;&lt;b&gt;Marketing Mix Modeling Platform&lt;/b&gt;
&lt;size:16&gt;End-to-End Data &amp; Analytics Pipeline</title><defs><filter height="300%" id="fdychkds6hp3b" width="300%" x="-1" y="-1"><feGaussianBlur result="blurOut" stdDeviation="2"/><feColorMatrix in="blurOut" result="blurOut2" type="matrix" values="0 0 0 0 0 0 0 0 0 0 0 0 0 0 0 0 0 0 .4 0"/><feOffset dx="4" dy="4" in="blurOut2" result="blurOut3"/><feBlend in="SourceGraphic" in2="blurOut3" mode="normal"/></filter></defs><g><g class="title" data-source-line="21"><text fill="#000000" font-family="Arial" font-size="24" font-weight="bold" lengthAdjust="spacing" textLength="452.5781" x="264.2109" y="37.2773">Marketing Mix Modeling Platform</text><text fill="#000000" font-family="Arial" font-size="16" font-weight="bold" lengthAdjust="spacing" textLength="333.5781" x="323.7109" y="57.7891">End-to-End Data &amp; Analytics Pipeline</text></g><!--cluster sources--><g class="cluster" data-entity="sources" data-source-line="24" data-uid="ent0002" id="cluster_sources"><path d="M19.5,78.8359 L155.4219,78.8359 A3.75,3.75 0 0 1 157.9219,81.3359 L164.9219,103.4609 L980.5,103.4609 A2.5,2.5 0 0 1 983,105.9609 L983,210.7359 A2.5,2.5 0 0 1 980.5,213.2359 L19.5,213.2359 A2.5,2.5 0 0 1 17,210.7359 L17,81.3359 A2.5,2.5 0 0 1 19.5,78.8359" fill="#E8F4F8" style="stroke:#000000;stroke-width:1;"/><line style="stroke:#000000;stroke-width:1;" x1="17" x2="164.9219" y1="103.4609" y2="103.4609"/><text fill="#000000" font-family="Arial" font-size="16" font-weight="bold" lengthAdjust="spacing" textLength="134.9219" x="21" y="95.6875">&#128202; Data Sources</text></g><!--cluster dwh--><g class="cluster" data-entity="dwh" data-source-line="38" data-uid="ent0012" id="cluster_dwh"><path d="M19.5,253.2359 L185.1016,253.2359 A3.75,3.75 0 0 1 187.6016,255.7359 L194.6016,277.8609 L875.5,277.8609 A2.5,2.5 0 0 1 878,280.3609 L878,400.2659 A2.5,2.5 0 0 1 875.5,402.7659 L19.5,402.7659 A2.5,2.5 0 0 1 17,400.2659 L17,255.7359 A2.5,2.5 0 0 1 19.5,253.2359" fill="#FFF4E6" style="stroke:#000000;stroke-width:1;"/><line style="stroke:#000000;stroke-width:1;" x1="17" x2="194.6016" y1="277.8609" y2="277.8609"/><text fill="#000000" font-family="Arial" font-size="16" font-weight="bold" lengthAdjust="spacing" textLength="164.6016" x="21" y="270.0875">&#128452;&#65039; Data Warehouse</text></g><!--cluster ml--><g class="cluster" data-entity="ml" data-source-line="50" data-uid="ent0020" id="cluster_ml"><path d="M19.5,442.7659 L316.4219,442.7659 A3.75,3.75 0 0 1 318.9219,445.2659 L325.9219,467.3909 L659.5,467.3909 A2.5,2.5 0 0 1 662,469.8909 L662,589.7959 A2.5,2.5 0 0 1 659.5,592.2959 L19.5,592.2959 A2.5,2.5 0 0 1 17,589.7959 L17,445.2659 A2.5,2.5 0 0 1 19.5,442.7659" fill="#E8F5E9" style="stroke:#000000;stroke-width:1;"/><line style="stroke:#000000;stroke-width:1;" x1="17" x2="325.9219" y1="467.3909" y2="467.3909"/><text fill="#000000" font-family="Arial" font-size="16" font-weight="bold" lengthAdjust="spacing" textLength="295.9219" x="21" y="459.6175">&#129302; MMM Machine Learning Engine</text></g><!--cluster dashboard--><g class="cluster" data-entity="dashboard" data-source-line="60" data-uid="ent0026" id="cluster_dashboard"><path d="M19.5,684.3959 L237.25,684.3959 A3.75,3.75 0 0 1 239.75,686.8959 L246.75,709.0209 L643.5,709.0209 A2.5,2.5 0 0 1 646,711.5209 L646,831.4259 A2.5,2.5 0 0 1 643.5,833.9259 L19.5,833.9259 A2.5,2.5 0 0 1 17,831.4259 L17,686.8959 A2.5,2.5 0 0 1 19.5,684.3959" fill="#F3E5F5" style="stroke:#000000;stroke-width:1;"/><line style="stroke:#000000;stroke-width:1;" x1="17" x2="246.75" y1="709.0209" y2="709.0209"/><text fill="#000000" font-family="Arial" font-size="16" font-weight="bold" lengthAdjust="spacing" textLength="216.75" x="21" y="701.2475">&#128241; Interactive Dashboard</text></g><!--cluster insights--><g class="cluster" data-entity="insights" data-source-line="70" data-uid="ent0032" id="cluster_insights"><path d="M680.5,624.2959 L856.5907,624.2959 A3.75,3.75 0 0 1 859.0907,626.7959 L866.0907,648.9209 L909.5,648.9209 A2.5,2.5 0 0 1 912,651.4209 L912,891.5259 A2.5,2.5 0 0 1 909.5,894.0259 L680.5,894.0259 A2.5,2.5 0 0 1 678,891.5259 L678,626.7959 A2.5,2.5 0 0 1 680.5,624.2959" fill="#FFEBEE" style="stroke:#000000;stroke-width:1;"/><line style="stroke:#000000;stroke-width:1;" x1="678" x2="866.0907" y1="648.9209" y2="648.9209"/><text fill="#000000" font-family="Arial" font-size="16" font-weight="bold" lengthAdjust="spacing" textLength="175.0907" x="682" y="641.1475">&#128161; Business Insights</text></g><!--entity marketing--><g class="entity" data-entity="marketing" data-source-line="25" data-uid="ent0003" id="entity_marketing"><rect fill="#FFFFFF" filter="url(#fdychkds6hp3b)" height="65.3984" rx="7.5" ry="7.5" style="stroke:#2C3E50;stroke-width:2;" width="181.6113" x="60.19" y="123.8359"/><text fill="#000000" font-family="Arial" font-size="13" font-weight="bold" lengthAdjust="spacing" textLength="137.7124" x="70.19" y="145.9028">&#128176; Marketing Spend</text><text fill="#000000" font-family="Arial" font-size="13" lengthAdjust="spacing" textLength="144.4346" x="70.19" y="161.0356">Google Ads, Facebook</text><text fill="#000000" font-family="Arial" font-size="13" lengthAdjust="spacing" textLength="161.6113" x="70.19" y="176.1685">Yandex Direct, TV, Radio</text></g><!--entity revenue--><g class="entity" data-entity="revenue" data-source-line="26" data-uid="ent0004" id="entity_revenue"><rect fill="#FFFFFF" filter="url(#fdychkds6hp3b)" height="65.3984" rx="7.5" ry="7.5" style="stroke:#2C3E50;stroke-width:2;" width="139.1531" x="276.42" y="123.8359"/><text fill="#000000" font-family="Arial" font-size="13" font-weight="bold" lengthAdjust="spacing" textLength="119.1531" x="286.42" y="145.9028">&#128181; Revenue Data</text><text fill="#000000" font-family="Arial" font-size="13" lengthAdjust="spacing" textLength="118.9424" x="286.42" y="161.0356">Sales transactions</text><text fill="#000000" font-family="Arial" font-size="13" lengthAdjust="spacing" textLength="115.2354" x="286.42" y="176.1685">E-commerce data</text></g><!--entity calendar--><g class="entity" data-entity="calendar" data-source-line="27" data-uid="ent0005" id="entity_calendar"><rect fill="#FFFFFF" filter="url(#fdychkds6hp3b)" height="65.3984" rx="7.5" ry="7.5" style="stroke:#2C3E50;stroke-width:2;" width="151.5615" x="450.22" y="123.8359"/><text fill="#000000" font-family="Arial" font-size="13" font-weight="bold" lengthAdjust="spacing" textLength="131.5615" x="460.22" y="145.9028">&#128197; Calendar Events</text><text fill="#000000" font-family="Arial" font-size="13" lengthAdjust="spacing" textLength="112.4297" x="460.22" y="161.0356">Holidays, Promos</text><text fill="#000000" font-family="Arial" font-size="13" lengthAdjust="spacing" textLength="75.1626" x="460.22" y="176.1685">Seasonality</text></g><!--entity macro--><g class="entity" data-entity="macro" data-source-line="28" data-uid="ent0006" id="entity_macro"><rect fill="#FFFFFF" filter="url(#fdychkds6hp3b)" height="65.3984" rx="7.5" ry="7.5" style="stroke:#2C3E50;stroke-width:2;" width="151.0601" x="636.47" y="123.8359"/><text fill="#000000" font-family="Arial" font-size="13" font-weight="bold" lengthAdjust="spacing" textLength="116.2637" x="646.47" y="145.9028">&#128200; Macro Factors</text><text fill="#000000" font-family="Arial" font-size="13" lengthAdjust="spacing" textLength="131.0601" x="646.47" y="161.0356">Economic indicators</text><text fill="#000000" font-family="Arial" font-size="13" lengthAdjust="spacing" textLength="90.9873" x="646.47" y="176.1685">Market trends</text></g><!--entity crm--><g class="entity" data-entity="crm" data-source-line="29" data-uid="ent0007" id="entity_crm"><rect fill="#FFFFFF" filter="url(#fdychkds6hp3b)" height="65.3984" rx="7.5" ry="7.5" style="stroke:#2C3E50;stroke-width:2;" width="136.0352" x="822.98" y="123.8359"/><text fill="#000000" font-family="Arial" font-size="13" font-weight="bold" lengthAdjust="spacing" textLength="83.8906" x="832.98" y="145.9028">&#128101; CRM Data</text><text fill="#000000" font-family="Arial" font-size="13" lengthAdjust="spacing" textLength="98.2681" x="832.98" y="161.0356">Customer base</text><text fill="#000000" font-family="Arial" font-size="13" lengthAdjust="spacing" textLength="116.0352" x="832.98" y="176.1685">Retention metrics</text></g><!--entity collection--><g class="entity" data-entity="collection" data-source-line="39" data-uid="ent0013" id="entity_collection"><rect fill="#FFFFFF" filter="url(#fdychkds6hp3b)" height="65.3984" rx="7.5" ry="7.5" style="stroke:#2C3E50;stroke-width:2;" width="180.9639" x="60.52" y="305.8059"/><text fill="#000000" font-family="Arial" font-size="13" font-weight="bold" lengthAdjust="spacing" textLength="125.4106" x="70.52" y="327.8728">1&#65039;&#8419; Data Collection</text><text fill="#000000" font-family="Arial" font-size="13" lengthAdjust="spacing" textLength="160.9639" x="70.52" y="343.0056">&#128229; Ingestion from sources</text><text fill="#000000" font-family="Arial" font-size="13" lengthAdjust="spacing" textLength="103.0986" x="70.52" y="358.1385">API connections</text></g><!--entity cleaning--><g class="entity" data-entity="cleaning" data-source-line="40" data-uid="ent0014" id="entity_cleaning"><rect fill="#FFFFFF" filter="url(#fdychkds6hp3b)" height="80.5313" rx="7.5" ry="7.5" style="stroke:#2C3E50;stroke-width:2;" width="166.3135" x="276.84" y="298.2359"/><text fill="#000000" font-family="Arial" font-size="13" font-weight="bold" lengthAdjust="spacing" textLength="116.5049" x="286.84" y="320.3028">2&#65039;&#8419; Data Cleaning</text><text fill="#000000" font-family="Arial" font-size="13" lengthAdjust="spacing" textLength="136.354" x="286.84" y="335.4356">&#129529; Remove duplicates</text><text fill="#000000" font-family="Arial" font-size="13" lengthAdjust="spacing" textLength="146.3135" x="286.84" y="350.5685">Handle missing values</text><text fill="#000000" font-family="Arial" font-size="13" lengthAdjust="spacing" textLength="109.6621" x="286.84" y="365.7013">Outlier detection</text></g><!--entity integration--><g class="entity" data-entity="integration" data-source-line="41" data-uid="ent0015" id="entity_integration"><rect fill="#FFFFFF" filter="url(#fdychkds6hp3b)" height="80.5313" rx="7.5" ry="7.5" style="stroke:#2C3E50;stroke-width:2;" width="155.1162" x="478.44" y="298.2359"/><text fill="#000000" font-family="Arial" font-size="13" font-weight="bold" lengthAdjust="spacing" textLength="135.1162" x="488.44" y="320.3028">3&#65039;&#8419; Data Integration</text><text fill="#000000" font-family="Arial" font-size="13" lengthAdjust="spacing" textLength="123.3477" x="488.44" y="335.4356">&#128279; Join data sources</text><text fill="#000000" font-family="Arial" font-size="13" lengthAdjust="spacing" textLength="118.4282" x="488.44" y="350.5685">Align time periods</text><text fill="#000000" font-family="Arial" font-size="13" lengthAdjust="spacing" textLength="132.3105" x="488.44" y="365.7013">Standardize formats</text></g><!--entity transformation--><g class="entity" data-entity="transformation" data-source-line="42" data-uid="ent0016" id="entity_transformation"><rect fill="#FFFFFF" filter="url(#fdychkds6hp3b)" height="80.5313" rx="7.5" ry="7.5" style="stroke:#2C3E50;stroke-width:2;" width="185.8643" x="668.07" y="298.2359"/><text fill="#000000" font-family="Arial" font-size="13" font-weight="bold" lengthAdjust="spacing" textLength="165.8643" x="678.07" y="320.3028">4&#65039;&#8419; Data Transformation</text><text fill="#000000" font-family="Arial" font-size="13" lengthAdjust="spacing" textLength="147.8242" x="678.07" y="335.4356">&#9881;&#65039; Feature engineering</text><text fill="#000000" font-family="Arial" font-size="13" lengthAdjust="spacing" textLength="86.6328" x="678.07" y="350.5685">Aggregations</text><text fill="#000000" font-family="Arial" font-size="13" lengthAdjust="spacing" textLength="90.5684" x="678.07" y="365.7013">Normalization</text></g><!--entity features--><g class="entity" data-entity="features" data-source-line="51" data-uid="ent0021" id="entity_features"><rect fill="#FFFFFF" filter="url(#fdychkds6hp3b)" height="80.5313" rx="7.5" ry="7.5" style="stroke:#2C3E50;stroke-width:2;" width="183.0967" x="60.45" y="487.7659"/><text fill="#000000" font-family="Arial" font-size="13" font-weight="bold" lengthAdjust="spacing" textLength="142.0352" x="70.45" y="509.8328">&#127919; Feature Selection</text><text fill="#000000" font-family="Arial" font-size="13" lengthAdjust="spacing" textLength="147.1768" x="70.45" y="524.9656">Select relevant factors</text><text fill="#000000" font-family="Arial" font-size="13" lengthAdjust="spacing" textLength="128.9653" x="70.45" y="540.0985">Correlation analysis</text><text fill="#000000" font-family="Arial" font-size="13" lengthAdjust="spacing" textLength="163.0967" x="70.45" y="555.2313">Dimensionality reduction</text></g><!--entity training--><g class="entity" data-entity="training" data-source-line="52" data-uid="ent0022" id="entity_training"><rect fill="#FFFFFF" filter="url(#fdychkds6hp3b)" height="80.5313" rx="7.5" ry="7.5" style="stroke:#2C3E50;stroke-width:2;" width="164.1807" x="278.91" y="487.7659"/><text fill="#000000" font-family="Arial" font-size="13" font-weight="bold" lengthAdjust="spacing" textLength="122.0781" x="288.91" y="509.8328">&#128300; Model Training</text><text fill="#000000" font-family="Arial" font-size="13" lengthAdjust="spacing" textLength="115.0957" x="288.91" y="524.9656">Saturation curves</text><text fill="#000000" font-family="Arial" font-size="13" lengthAdjust="spacing" textLength="99.9438" x="288.91" y="540.0985">Adstock effects</text><text fill="#000000" font-family="Arial" font-size="13" lengthAdjust="spacing" textLength="144.1807" x="288.91" y="555.2313">Bayesian optimization</text></g><!--entity validation--><g class="entity" data-entity="validation" data-source-line="53" data-uid="ent0023" id="entity_validation"><rect fill="#FFFFFF" filter="url(#fdychkds6hp3b)" height="80.5313" rx="7.5" ry="7.5" style="stroke:#2C3E50;stroke-width:2;" width="159.5825" x="478.21" y="487.7659"/><text fill="#000000" font-family="Arial" font-size="13" font-weight="bold" lengthAdjust="spacing" textLength="139.5825" x="488.21" y="509.8328">&#9989; Model Validation</text><text fill="#000000" font-family="Arial" font-size="13" lengthAdjust="spacing" textLength="104.6157" x="488.21" y="524.9656">Cross-validation</text><text fill="#000000" font-family="Arial" font-size="13" lengthAdjust="spacing" textLength="98.0205" x="488.21" y="540.0985">R&#178; score, MAPE</text><text fill="#000000" font-family="Arial" font-size="13" lengthAdjust="spacing" textLength="112.252" x="488.21" y="555.2313">Residual analysis</text></g><!--entity budget--><g class="entity" data-entity="budget" data-source-line="61" data-uid="ent0027" id="entity_budget"><rect fill="#FFFFFF" filter="url(#fdychkds6hp3b)" height="80.5313" rx="7.5" ry="7.5" style="stroke:#2C3E50;stroke-width:2;" width="156.5508" x="60.72" y="729.3959"/><text fill="#000000" font-family="Arial" font-size="13" font-weight="bold" lengthAdjust="spacing" textLength="133.9419" x="70.72" y="751.4628">&#128188; Budget Planning</text><text fill="#000000" font-family="Arial" font-size="13" lengthAdjust="spacing" textLength="118.7266" x="70.72" y="766.5956">Optimal allocation</text><text fill="#000000" font-family="Arial" font-size="13" lengthAdjust="spacing" textLength="136.5508" x="70.72" y="781.7285">Scenario comparison</text><text fill="#000000" font-family="Arial" font-size="13" lengthAdjust="spacing" textLength="127.6133" x="70.72" y="796.8613">Target optimization</text></g><!--entity saturation--><g class="entity" data-entity="saturation" data-source-line="62" data-uid="ent0028" id="entity_saturation"><rect fill="#FFFFFF" filter="url(#fdychkds6hp3b)" height="80.5313" rx="7.5" ry="7.5" style="stroke:#2C3E50;stroke-width:2;" width="175.4478" x="252.28" y="729.3959"/><text fill="#000000" font-family="Arial" font-size="13" font-weight="bold" lengthAdjust="spacing" textLength="155.4478" x="262.28" y="751.4628">&#128202; Saturation Analysis</text><text fill="#000000" font-family="Arial" font-size="13" lengthAdjust="spacing" textLength="120.104" x="262.28" y="766.5956">Channel efficiency</text><text fill="#000000" font-family="Arial" font-size="13" lengthAdjust="spacing" textLength="128.0322" x="262.28" y="781.7285">Diminishing returns</text><text fill="#000000" font-family="Arial" font-size="13" lengthAdjust="spacing" textLength="104.3682" x="262.28" y="796.8613">Inflection points</text></g><!--entity context--><g class="entity" data-entity="context" data-source-line="63" data-uid="ent0029" id="entity_context"><rect fill="#FFFFFF" filter="url(#fdychkds6hp3b)" height="80.5313" rx="7.5" ry="7.5" style="stroke:#2C3E50;stroke-width:2;" width="159.5405" x="462.23" y="729.3959"/><text fill="#000000" font-family="Arial" font-size="13" font-weight="bold" lengthAdjust="spacing" textLength="139.5405" x="472.23" y="751.4628">&#128197; Context Calendar</text><text fill="#000000" font-family="Arial" font-size="13" lengthAdjust="spacing" textLength="86.1123" x="472.23" y="766.5956">Event impact</text><text fill="#000000" font-family="Arial" font-size="13" lengthAdjust="spacing" textLength="67.3677" x="472.23" y="781.7285">Multipliers</text><text fill="#000000" font-family="Arial" font-size="13" lengthAdjust="spacing" textLength="75.1626" x="472.23" y="796.8613">Seasonality</text></g><!--entity outcomes--><g class="entity" data-entity="outcomes" data-source-line="71" data-uid="ent0033" id="entity_outcomes"><rect fill="#FFFFFF" filter="url(#fdychkds6hp3b)" height="216.7266" rx="7.5" ry="7.5" style="stroke:#2C3E50;stroke-width:2;" width="202.7363" x="693.63" y="661.2959"/><text fill="#000000" font-family="Arial" font-size="13" font-weight="bold" lengthAdjust="spacing" textLength="117.4761" x="703.63" y="683.3628">&#128204; Key Outcomes</text><text fill="#000000" font-family="Arial" font-size="13" lengthAdjust="spacing" textLength="4.1323" x="703.63" y="698.4956">&#160;</text><text fill="#000000" font-family="Arial" font-size="13" lengthAdjust="spacing" textLength="10.8926" x="703.63" y="713.6285">&#10003;</text><text fill="#000000" font-family="Arial" font-size="13" font-weight="bold" lengthAdjust="spacing" textLength="115.1338" x="718.6549" y="713.6285">Optimal Budget</text><text fill="#000000" font-family="Arial" font-size="13" lengthAdjust="spacing" textLength="174.4717" x="711.8946" y="728.7613">Channel-specific allocation</text><text fill="#000000" font-family="Arial" font-size="13" lengthAdjust="spacing" textLength="4.1323" x="703.63" y="743.8941">&#160;</text><text fill="#000000" font-family="Arial" font-size="13" lengthAdjust="spacing" textLength="10.8926" x="703.63" y="759.0269">&#10003;</text><text fill="#000000" font-family="Arial" font-size="13" font-weight="bold" lengthAdjust="spacing" textLength="131.4409" x="718.6549" y="759.0269">Revenue Forecast</text><text fill="#000000" font-family="Arial" font-size="13" lengthAdjust="spacing" textLength="112.709" x="711.8946" y="774.1597">Predicted returns</text><text fill="#000000" font-family="Arial" font-size="13" lengthAdjust="spacing" textLength="4.1323" x="703.63" y="789.2925">&#160;</text><text fill="#000000" font-family="Arial" font-size="13" lengthAdjust="spacing" textLength="10.8926" x="703.63" y="804.4253">&#10003;</text><text fill="#000000" font-family="Arial" font-size="13" font-weight="bold" lengthAdjust="spacing" textLength="89.7749" x="718.6549" y="804.4253">Channel ROI</text><text fill="#000000" font-family="Arial" font-size="13" lengthAdjust="spacing" textLength="136.3857" x="711.8946" y="819.5581">Performance ranking</text><text fill="#000000" font-family="Arial" font-size="13" lengthAdjust="spacing" textLength="4.1323" x="703.63" y="834.691">&#160;</text><text fill="#000000" font-family="Arial" font-size="13" lengthAdjust="spacing" textLength="10.8926" x="703.63" y="849.8238">&#10003;</text><text fill="#000000" font-family="Arial" font-size="13" font-weight="bold" lengthAdjust="spacing" textLength="130.4443" x="718.6549" y="849.8238">What-If Scenarios</text><text fill="#000000" font-family="Arial" font-size="13" lengthAdjust="spacing" textLength="125.4297" x="711.8946" y="864.9566">Budget simulations</text></g><!--link marketing to revenue--><!--link revenue to calendar--><!--link calendar to macro--><!--link macro to crm--><!--link collection to cleaning--><!--link cleaning to integration--><!--link integration to transformation--><!--link features to training--><!--link training to validation--><!--link budget to saturation--><!--link saturation to context--><!--link sources to dwh--><g class="link" data-entity-1="sources" data-entity-2="dwh" data-source-line="76" data-uid="lnk34" id="link_sources_dwh"><path d="M25,213.5787 C25,214.2149 25,214.8537 25,215.495 C25,225.7559 25,236.6556 25,247.5547 C25,248.9171 25,250.2794 25,251.6406 C25,251.9808 25,252.321 25,252.6611 C25,252.8312 25,247.0012 25,247.1712" fill="none" id="sources-to-dwh" style="stroke:#FFFFFF;stroke-width:4;"/><polygon fill="#FFFFFF" points="25,253.1712,29,244.1712,25,248.1712,21,244.1712,25,253.1712" style="stroke:#FFFFFF;stroke-width:4;"/></g><!--link dwh to ml--><g class="link" data-entity-1="dwh" data-entity-2="ml" data-source-line="77" data-uid="lnk35" id="link_dwh_ml"><path d="M25,402.9173 C25,403.2551 25,403.5935 25,403.9326 C25,405.2886 25,406.6537 25,408.0267 C25,410.7726 25,413.5497 25,416.3475 C25,421.9433 25,427.6222 25,433.3009 C25,436.1403 25,438.9796 25,441.8085 C25,441.9853 25,436.1621 25,436.3388" fill="none" id="dwh-to-ml" style="stroke:#FFFFFF;stroke-width:4;"/><polygon fill="#FFFFFF" points="25,442.3388,29,433.3388,25,437.3388,21,433.3388,25,442.3388" style="stroke:#FFFFFF;stroke-width:4;"/></g><!--link ml to dashboard--><g class="link" data-entity-1="ml" data-entity-2="dashboard" data-source-line="78" data-uid="lnk36" id="link_ml_dashboard"><path d="M25,592.8227 C25,593.6481 25,594.478 25,595.3123 C25,598.6495 25,602.0564 25,605.5192 C25,619.3701 25,634.1138 25,648.8572 C25,656.2289 25,663.6006 25,670.8605 C25,674.4905 25,678.0926 25,681.6528 C25,682.5428 25,677.4303 25,678.3149" fill="none" id="ml-to-dashboard" style="stroke:#FFFFFF;stroke-width:4;"/><polygon fill="#FFFFFF" points="25,684.3149,29,675.3149,25,679.3149,21,675.3149,25,684.3149" style="stroke:#FFFFFF;stroke-width:4;"/></g><!--link dashboard to outcomes--><g class="legend" data-source-line="84"><rect fill="none" height="85.1875" rx="7.5" ry="7.5" style="stroke:#000000;stroke-width:1;" width="298.7637" x="10" y="905.0259"/><text fill="#000000" font-family="Arial" font-size="14" font-weight="bold" lengthAdjust="spacing" textLength="103.0313" x="15" y="923.0211">Process Flow</text><line style="stroke:#000000;stroke-width:1;" x1="10" x2="308.7637" y1="931.3228" y2="931.3228"/><text fill="#000000" font-family="Arial" font-size="14" lengthAdjust="spacing" textLength="212.3242" x="15" y="949.3179">Data flows from top to bottom</text><text fill="#000000" font-family="Arial" font-size="14" lengthAdjust="spacing" textLength="288.7637" x="15" y="965.6148">Each stage transforms and enriches data</text><text fill="#000000" font-family="Arial" font-size="14" lengthAdjust="spacing" textLength="280.1299" x="15" y="981.9117">Business insights generated throughout</text></g><!--SRC=[bLThYrj56FwUN_7QWXVOe7ihLTg5RFQa6ssI9ITjaMu_JCwPd0nxpaoOcRFjLloY5gI8nMwng0KfMlmYM5iBjJV1Nv3-XVu1_Gc-CtCkYTbDsK2xP3BlxNcVzp9lw25DA8nYmdX5xJ0-8f8aq2V1JYH5oiEwY8M4umtxcRWHqW59OzqGNBS9QgX9HkA3V_VPLGgBovNAMp2- -_ApyUFnq_5Z6FynVlho1eoVZ5-Cdut_ml-VZn-Dd-FlByOF9XH96cZ2evZ29nN0p_eXhjdVX0ofpCwNwilUwdiJvxqX2tOuLGgMx6ccH78gON7L7gaX2SLbnYFGCgMLJoiJZX0fnUNCYLaJfV9b8uQXtXxV7p_4O9wQWF3Vaufc6iCufH2F3vPMraxrrrf4xb1jxBNO5MY9aCRcorPCz438vDIx_RLjxWGMJwnvFAngKSK_i44qWJUXnacyfrcWO8kDZ2mrfayVy86DMgy6VkTSj-xv1zweZ11P4b4uLXX43__zSV-wi-QBL0PK6P-E0L6Wt7Suxfrih3HEPiYKwJfcfM_UXp98VqHvw88w8uIvL0lL0ZH8GFj2x6ppZmaFwHNOO4RD0lJEBq2NX4nOWqcXPpBdCmOVGPVkKfvIwxQpvfCOFTMIS4K2pGHNszoh1Y99ACO08Lwq9cGcES_0_ZMeepeU4WaUNjVAsTWKCGl97iQp9KKYq89FYHAO8QRthFOW5vkh_ai4B932eAA5p9HxWU0YOG4m7hA0c1-skGCMmqAjAeF8ICvJ_yqzg7TR4z3KKwK5me0rh-WsxrAD8I52a50jaLdESvaKMgtQCXVLYqCMXfHVaYmQwkfQZc5ctU4vSoc7mjugS9cvPkF939h8PlN8n9NRuPo_KEjwcvrpldSarj_-uf_7DnpnBn19Xo9LjA1-U7beuLZnJXn8-qMKVVNvJquSUqLCBUaSu9ZYUz3a4LKMvW6I9Q-bRLxRQWAccZk13Fn2mPpCBasPZ2dXc9pSu2z_OaqaOXUPdevYmnzZQnEB3QKJffH9v2w9KtFSINNCa0yXCi5QTKvaAkUui3pfGfDh6aao6VQjs_2XODnMsqJ4COiuQ6Qc49LCXAPmK2lo8JI3m_H1eXqIh5Gwnu-LIJzwfkQTZiALLzz_PvBRe4IdaWBb4JPEjCqZT2UA98r8rYFQHZ1cLqc1WvxIDrqK4ucQ9Mg6dxkOWpbpRI92UtCoufdBqxxCgOFMMV3QPvhjevN0pzz2gzKotMY8-C1PIgHrshDu5SMGn7O4h7hl7p82llwjWDgdKwNWlg90J7S9rp1mBG-Raf1uwC8cPiOfXgSRI1AkMDPIKInCIu8Ed0arj_lT-jKDMKCBLbQ8RqITjI2LkvQM8RR5O0VeO80wy62Tx57520SnGhB-ZnBiDQNnwiwrpF1vOgP42K5T2gMgkyKfTk2_7u0AXAGBqAfjUQObAnQc92wGi5PBaMaI5ZWSH1TMKB1mUkPQgNWEevhjdjUjrNlDynvsMNzplLFhRXnjhVZTzWXfvl6kcTLgs1TOysMJpKymFbop6gk7RHZFO3qD8no4k3RnCgaTaoU3MXoB8CFM3oWds6ImL1FSwfWoXpqYZVHCNljEwznXVHqck5FByfDbTeZUOCQHGInWb0Txbi68kXeQu2L5GTDacdoGjuqHziUirwbIx-ks4TonwHLTR2NPnc1M4s0OPg1nLS1Td8rCNpzeByaKJF4eYtw67gLVRcCktPpjUKxl71gjd_EnA_a-yibldjdi7MqplNaNCu-pospTJMmCQBLSJrbsOABorZtl4FRiVmKVqJt0eOUKe5dgS4JSsGVyFUUG8vZx4RT_bzcg6j60ONAdA5R8vbje0qiv8AgGtiA-nG9Dmv81XKpEcMwdMLodqhPuZdigzliTEwKAWGj3eglD0UJ4LhbOLXAA9QdheuvL8ekpoFNXkQbtscqFAxpJFYGhR-5em74-YF5PP1z72jvcV9SfraTugqWDdEc1VIcPQYhURUzKygT35HzR_6BcoeBEdr2dLouXUt39gfX5Q-wb9AxW_9cl9-yZ9j8jePWbwmnnG0l0np1Oye8OJCYLdMY6uZcUziNt0pvW7vf7BBvjxrTY6c4vGbzetAyXfWED1CIKuUiWC8ORY9l95fvMyOD_xC9Yu5HkAzHYPBno6l1t3oSnA6qgeHZz2gT2Y2iChkf3gknkLO4okg8Aq1VijOPrUeXPY72XrHLg5a3ZPUK_]--></g></svg>